# xmcd
#
# Track frame offsets:
#	150
#	17507
#	29900
#
# Disc length: 589 seconds
#
# Revision: 1
# Processed by: cddbd v1.5.2PL0 Copyright (c) Steve Scherf et al.
# Submitted via: EZCDAudioConverter 4.0.5.1
#
DISCID=1e024b03
DTITLE=Fishmonkeyman - The World Revolves Around You [CD Single)
DYEAR=1900
DGENRE=Pop
TTITLE0=The World Revolves Around You
TTITLE1=The Man Who Took Speed
TTITLE2=The Hoover Song
EXTD=
EXTT0=
EXTT1=
EXTT2=
PLAYORDER=
